<mxfile host="app.diagrams.net" modified="2023-07-14T06:45:28.378Z" agent="Mozilla/5.0 (X11; Linux x86_64) AppleWebKit/537.36 (KHTML, like Gecko) Chrome/111.0.0.0 Safari/537.36" etag="5NemvnrMVjjqdY4fzKFJ" version="21.6.2" type="github">
  <diagram id="R2lEEEUBdFMjLlhIrx00" name="Page-1">
    <mxGraphModel dx="880" dy="393" grid="1" gridSize="10" guides="1" tooltips="1" connect="1" arrows="1" fold="1" page="1" pageScale="1" pageWidth="850" pageHeight="1100" math="0" shadow="0" extFonts="Permanent Marker^https://fonts.googleapis.com/css?family=Permanent+Marker">
      <root>
        <mxCell id="0" />
        <mxCell id="1" parent="0" />
        <mxCell id="n0tMBdhJ6xTZchtQv0El-1" value="Members" style="rounded=0;whiteSpace=wrap;html=1;" vertex="1" parent="1">
          <mxGeometry x="60" y="100" width="120" height="60" as="geometry" />
        </mxCell>
        <mxCell id="n0tMBdhJ6xTZchtQv0El-2" value="" style="endArrow=classic;html=1;rounded=0;entryX=0.989;entryY=0.933;entryDx=0;entryDy=0;entryPerimeter=0;exitX=-0.033;exitY=0.9;exitDx=0;exitDy=0;exitPerimeter=0;" edge="1" parent="1" source="n0tMBdhJ6xTZchtQv0El-8" target="n0tMBdhJ6xTZchtQv0El-8">
          <mxGeometry width="50" height="50" relative="1" as="geometry">
            <mxPoint x="180" y="150" as="sourcePoint" />
            <mxPoint x="270" y="150" as="targetPoint" />
          </mxGeometry>
        </mxCell>
        <mxCell id="n0tMBdhJ6xTZchtQv0El-3" value="libraray information system" style="ellipse;whiteSpace=wrap;html=1;aspect=fixed;" vertex="1" parent="1">
          <mxGeometry x="270" y="70" width="120" height="120" as="geometry" />
        </mxCell>
        <mxCell id="n0tMBdhJ6xTZchtQv0El-4" value="" style="endArrow=classic;html=1;rounded=0;entryX=1.05;entryY=1.2;entryDx=0;entryDy=0;entryPerimeter=0;" edge="1" parent="1" target="n0tMBdhJ6xTZchtQv0El-5">
          <mxGeometry width="50" height="50" relative="1" as="geometry">
            <mxPoint x="180" y="120" as="sourcePoint" />
            <mxPoint x="230" y="70" as="targetPoint" />
          </mxGeometry>
        </mxCell>
        <mxCell id="n0tMBdhJ6xTZchtQv0El-5" value="Book views" style="text;html=1;align=center;verticalAlign=middle;resizable=0;points=[];autosize=1;strokeColor=none;fillColor=none;" vertex="1" parent="1">
          <mxGeometry x="190" y="80" width="80" height="30" as="geometry" />
        </mxCell>
        <mxCell id="n0tMBdhJ6xTZchtQv0El-8" value="book request" style="text;html=1;align=center;verticalAlign=middle;resizable=0;points=[];autosize=1;strokeColor=none;fillColor=none;" vertex="1" parent="1">
          <mxGeometry x="180" y="115" width="90" height="30" as="geometry" />
        </mxCell>
        <mxCell id="n0tMBdhJ6xTZchtQv0El-9" value="" style="endArrow=classic;html=1;rounded=0;" edge="1" parent="1">
          <mxGeometry width="50" height="50" relative="1" as="geometry">
            <mxPoint x="390" y="140" as="sourcePoint" />
            <mxPoint x="500" y="140" as="targetPoint" />
          </mxGeometry>
        </mxCell>
        <mxCell id="n0tMBdhJ6xTZchtQv0El-10" value="Book info" style="text;html=1;align=center;verticalAlign=middle;resizable=0;points=[];autosize=1;strokeColor=none;fillColor=none;" vertex="1" parent="1">
          <mxGeometry x="405" y="98" width="70" height="30" as="geometry" />
        </mxCell>
        <mxCell id="n0tMBdhJ6xTZchtQv0El-11" value="Display books" style="rounded=0;whiteSpace=wrap;html=1;" vertex="1" parent="1">
          <mxGeometry x="500" y="110" width="120" height="60" as="geometry" />
        </mxCell>
        <mxCell id="n0tMBdhJ6xTZchtQv0El-15" value="" style="endArrow=classic;html=1;rounded=0;exitX=0.042;exitY=0.783;exitDx=0;exitDy=0;exitPerimeter=0;" edge="1" parent="1" source="n0tMBdhJ6xTZchtQv0El-3">
          <mxGeometry width="50" height="50" relative="1" as="geometry">
            <mxPoint x="270" y="170" as="sourcePoint" />
            <mxPoint x="170" y="160" as="targetPoint" />
          </mxGeometry>
        </mxCell>
        <mxCell id="n0tMBdhJ6xTZchtQv0El-18" value="Books" style="text;html=1;align=center;verticalAlign=middle;resizable=0;points=[];autosize=1;strokeColor=none;fillColor=none;" vertex="1" parent="1">
          <mxGeometry x="200" y="158" width="60" height="30" as="geometry" />
        </mxCell>
      </root>
    </mxGraphModel>
  </diagram>
</mxfile>
